<mxfile host="app.diagrams.net" modified="2023-01-07T20:28:33.316Z" agent="5.0 (Macintosh; Intel Mac OS X 10_14_6) AppleWebKit/537.36 (KHTML, like Gecko) Chrome/108.0.0.0 Safari/537.36" version="20.8.1" etag="TG2cBkucPfscDTnq1x8A" type="github">
  <diagram id="D9tSPsm-ZxKw9A4MVRx9" name="第 1 页">
    <mxGraphModel dx="1899" dy="1531" grid="1" gridSize="10" guides="1" tooltips="1" connect="1" arrows="1" fold="1" page="1" pageScale="1" pageWidth="827" pageHeight="1169" math="0" shadow="0">
      <root>
        <mxCell id="0" />
        <mxCell id="1" parent="0" />
        <mxCell id="TbwkejUD0fsEuNJ-uTAk-86" value="" style="rounded=0;whiteSpace=wrap;html=1;strokeWidth=2;fillWeight=4;hachureGap=8;hachureAngle=45;fillColor=#ffe6cc;strokeColor=#d79b00;" vertex="1" parent="1">
          <mxGeometry x="1180" y="140" width="940" height="360" as="geometry" />
        </mxCell>
        <mxCell id="TbwkejUD0fsEuNJ-uTAk-83" value="" style="rounded=0;whiteSpace=wrap;html=1;strokeWidth=2;fillWeight=4;hachureGap=8;hachureAngle=45;fillColor=#cce5ff;strokeColor=#36393d;" vertex="1" parent="1">
          <mxGeometry x="1200" y="180" width="480" height="300" as="geometry" />
        </mxCell>
        <mxCell id="TbwkejUD0fsEuNJ-uTAk-82" value="" style="rounded=0;whiteSpace=wrap;html=1;strokeWidth=2;fillWeight=4;hachureGap=8;hachureAngle=45;fillColor=#fff2cc;strokeColor=#d6b656;" vertex="1" parent="1">
          <mxGeometry x="1580" y="220" width="80" height="240" as="geometry" />
        </mxCell>
        <mxCell id="TbwkejUD0fsEuNJ-uTAk-3" value="" style="rounded=0;whiteSpace=wrap;html=1;strokeWidth=2;fillWeight=4;hachureGap=8;hachureAngle=45;fillColor=#f5f5f5;strokeColor=#666666;fontColor=#333333;" vertex="1" parent="1">
          <mxGeometry x="1220" y="220" width="320" height="240" as="geometry" />
        </mxCell>
        <mxCell id="TbwkejUD0fsEuNJ-uTAk-1" value="" style="rounded=0;whiteSpace=wrap;html=1;strokeWidth=2;fillWeight=4;hachureGap=8;hachureAngle=45;fillColor=#d5e8d4;strokeColor=#82b366;" vertex="1" parent="1">
          <mxGeometry x="880" y="140" width="260" height="120" as="geometry" />
        </mxCell>
        <mxCell id="TbwkejUD0fsEuNJ-uTAk-2" value="" style="ellipse;whiteSpace=wrap;html=1;strokeWidth=2;fillWeight=2;hachureGap=8;fillColor=#dae8fc;fillStyle=auto;shadow=0;strokeColor=#6c8ebf;" vertex="1" parent="1">
          <mxGeometry x="1361" y="240" width="40" height="40" as="geometry" />
        </mxCell>
        <mxCell id="TbwkejUD0fsEuNJ-uTAk-4" value="" style="ellipse;whiteSpace=wrap;html=1;strokeWidth=2;fillWeight=2;hachureGap=8;fillColor=#dae8fc;fillStyle=auto;shadow=0;strokeColor=#6c8ebf;" vertex="1" parent="1">
          <mxGeometry x="1281" y="320" width="40" height="40" as="geometry" />
        </mxCell>
        <mxCell id="TbwkejUD0fsEuNJ-uTAk-5" value="" style="ellipse;whiteSpace=wrap;html=1;strokeWidth=2;fillWeight=2;hachureGap=8;fillColor=#dae8fc;fillStyle=auto;shadow=0;strokeColor=#6c8ebf;" vertex="1" parent="1">
          <mxGeometry x="1441" y="320" width="40" height="40" as="geometry" />
        </mxCell>
        <mxCell id="TbwkejUD0fsEuNJ-uTAk-6" value="" style="ellipse;whiteSpace=wrap;html=1;strokeWidth=2;fillWeight=2;hachureGap=8;fillColor=#dae8fc;fillStyle=auto;shadow=0;strokeColor=#6c8ebf;" vertex="1" parent="1">
          <mxGeometry x="1241" y="400" width="40" height="40" as="geometry" />
        </mxCell>
        <mxCell id="TbwkejUD0fsEuNJ-uTAk-7" value="" style="ellipse;whiteSpace=wrap;html=1;strokeWidth=2;fillWeight=2;hachureGap=8;fillColor=#dae8fc;fillStyle=auto;shadow=0;strokeColor=#6c8ebf;" vertex="1" parent="1">
          <mxGeometry x="1321" y="400" width="40" height="40" as="geometry" />
        </mxCell>
        <mxCell id="TbwkejUD0fsEuNJ-uTAk-8" value="" style="ellipse;whiteSpace=wrap;html=1;strokeWidth=2;fillWeight=2;hachureGap=8;fillColor=#dae8fc;fillStyle=auto;shadow=0;strokeColor=#6c8ebf;" vertex="1" parent="1">
          <mxGeometry x="1401" y="400" width="40" height="40" as="geometry" />
        </mxCell>
        <mxCell id="TbwkejUD0fsEuNJ-uTAk-11" value="" style="endArrow=classic;html=1;rounded=0;strokeWidth=2;exitX=0;exitY=1;exitDx=0;exitDy=0;entryX=0.5;entryY=0;entryDx=0;entryDy=0;fillColor=#dae8fc;strokeColor=#6c8ebf;" edge="1" parent="1" source="TbwkejUD0fsEuNJ-uTAk-2" target="TbwkejUD0fsEuNJ-uTAk-4">
          <mxGeometry width="50" height="50" relative="1" as="geometry">
            <mxPoint x="1691" y="350" as="sourcePoint" />
            <mxPoint x="1741" y="300" as="targetPoint" />
          </mxGeometry>
        </mxCell>
        <mxCell id="TbwkejUD0fsEuNJ-uTAk-12" value="" style="endArrow=classic;html=1;rounded=0;strokeWidth=2;exitX=1;exitY=1;exitDx=0;exitDy=0;entryX=0.5;entryY=0;entryDx=0;entryDy=0;fillColor=#dae8fc;strokeColor=#6c8ebf;" edge="1" parent="1" source="TbwkejUD0fsEuNJ-uTAk-2" target="TbwkejUD0fsEuNJ-uTAk-5">
          <mxGeometry width="50" height="50" relative="1" as="geometry">
            <mxPoint x="1376.857864376269" y="304.14213562373106" as="sourcePoint" />
            <mxPoint x="1325.142135623731" y="335.85786437626894" as="targetPoint" />
          </mxGeometry>
        </mxCell>
        <mxCell id="TbwkejUD0fsEuNJ-uTAk-13" value="" style="endArrow=classic;html=1;rounded=0;strokeWidth=2;exitX=0;exitY=1;exitDx=0;exitDy=0;entryX=0.5;entryY=0;entryDx=0;entryDy=0;fillColor=#dae8fc;strokeColor=#6c8ebf;" edge="1" parent="1" source="TbwkejUD0fsEuNJ-uTAk-4" target="TbwkejUD0fsEuNJ-uTAk-6">
          <mxGeometry width="50" height="50" relative="1" as="geometry">
            <mxPoint x="1405.142135623731" y="304.14213562373106" as="sourcePoint" />
            <mxPoint x="1456.857864376269" y="335.85786437626894" as="targetPoint" />
          </mxGeometry>
        </mxCell>
        <mxCell id="TbwkejUD0fsEuNJ-uTAk-14" value="" style="endArrow=classic;html=1;rounded=0;strokeWidth=2;exitX=1;exitY=1;exitDx=0;exitDy=0;entryX=0.5;entryY=0;entryDx=0;entryDy=0;fillColor=#dae8fc;strokeColor=#6c8ebf;" edge="1" parent="1" source="TbwkejUD0fsEuNJ-uTAk-4" target="TbwkejUD0fsEuNJ-uTAk-7">
          <mxGeometry width="50" height="50" relative="1" as="geometry">
            <mxPoint x="1296.857864376269" y="364.14213562373106" as="sourcePoint" />
            <mxPoint x="1271" y="390" as="targetPoint" />
          </mxGeometry>
        </mxCell>
        <mxCell id="TbwkejUD0fsEuNJ-uTAk-15" value="" style="endArrow=classic;html=1;rounded=0;strokeWidth=2;exitX=0;exitY=1;exitDx=0;exitDy=0;entryX=0.5;entryY=0;entryDx=0;entryDy=0;fillColor=#dae8fc;strokeColor=#6c8ebf;" edge="1" parent="1" source="TbwkejUD0fsEuNJ-uTAk-5" target="TbwkejUD0fsEuNJ-uTAk-8">
          <mxGeometry width="50" height="50" relative="1" as="geometry">
            <mxPoint x="1325.142135623731" y="364.14213562373106" as="sourcePoint" />
            <mxPoint x="1351" y="390" as="targetPoint" />
          </mxGeometry>
        </mxCell>
        <mxCell id="TbwkejUD0fsEuNJ-uTAk-18" value="" style="ellipse;whiteSpace=wrap;html=1;strokeWidth=2;fillWeight=2;hachureGap=8;fillColor=#d5e8d4;fillStyle=auto;shadow=0;strokeColor=#82b366;" vertex="1" parent="1">
          <mxGeometry x="1600" y="240" width="40" height="40" as="geometry" />
        </mxCell>
        <mxCell id="TbwkejUD0fsEuNJ-uTAk-19" value="" style="ellipse;whiteSpace=wrap;html=1;strokeWidth=2;fillWeight=2;hachureGap=8;fillColor=#d5e8d4;fillStyle=auto;shadow=0;strokeColor=#82b366;" vertex="1" parent="1">
          <mxGeometry x="1600" y="320" width="40" height="40" as="geometry" />
        </mxCell>
        <mxCell id="TbwkejUD0fsEuNJ-uTAk-21" value="" style="endArrow=classic;html=1;rounded=0;strokeWidth=2;exitX=0.5;exitY=1;exitDx=0;exitDy=0;entryX=0.5;entryY=0;entryDx=0;entryDy=0;fillColor=#d5e8d4;strokeColor=#82b366;" edge="1" parent="1" source="TbwkejUD0fsEuNJ-uTAk-18" target="TbwkejUD0fsEuNJ-uTAk-19">
          <mxGeometry width="50" height="50" relative="1" as="geometry">
            <mxPoint x="1450" y="200" as="sourcePoint" />
            <mxPoint x="1500" y="150" as="targetPoint" />
          </mxGeometry>
        </mxCell>
        <mxCell id="TbwkejUD0fsEuNJ-uTAk-41" value="&lt;font style=&quot;font-size: 15px;&quot;&gt;epoll&lt;/font&gt;" style="text;strokeColor=none;fillColor=none;html=1;fontSize=24;fontStyle=1;verticalAlign=middle;align=center;shadow=0;sketch=0;fillStyle=auto;" vertex="1" parent="1">
          <mxGeometry x="1201" y="180" width="80" height="40" as="geometry" />
        </mxCell>
        <mxCell id="TbwkejUD0fsEuNJ-uTAk-43" value="协议栈" style="rounded=1;whiteSpace=wrap;html=1;strokeWidth=2;fillWeight=4;hachureGap=8;hachureAngle=45;fillColor=#b0e3e6;strokeColor=#0e8088;fontSize=15;fontStyle=1" vertex="1" parent="1">
          <mxGeometry x="1720" y="240" width="240" height="80" as="geometry" />
        </mxCell>
        <mxCell id="TbwkejUD0fsEuNJ-uTAk-46" value="&lt;font style=&quot;font-size: 15px;&quot;&gt;用户空间&lt;/font&gt;" style="text;strokeColor=none;fillColor=none;html=1;fontSize=24;fontStyle=1;verticalAlign=middle;align=center;shadow=0;sketch=0;fillStyle=auto;" vertex="1" parent="1">
          <mxGeometry x="1040" y="140" width="100" height="40" as="geometry" />
        </mxCell>
        <mxCell id="TbwkejUD0fsEuNJ-uTAk-49" value="&lt;font style=&quot;font-size: 15px;&quot;&gt;epoll_create 创建 epoll&lt;/font&gt;" style="text;strokeColor=none;fillColor=none;html=1;fontSize=24;fontStyle=1;verticalAlign=middle;align=center;shadow=0;sketch=0;fillStyle=auto;" vertex="1" parent="1">
          <mxGeometry x="880" y="180" width="260" height="80" as="geometry" />
        </mxCell>
        <mxCell id="TbwkejUD0fsEuNJ-uTAk-84" value="&lt;font style=&quot;font-size: 15px;&quot;&gt;就绪队列&lt;/font&gt;" style="text;strokeColor=none;fillColor=none;html=1;fontSize=24;fontStyle=1;verticalAlign=middle;align=center;shadow=0;sketch=0;fillStyle=auto;" vertex="1" parent="1">
          <mxGeometry x="1580" y="180" width="80" height="40" as="geometry" />
        </mxCell>
        <mxCell id="TbwkejUD0fsEuNJ-uTAk-85" value="&lt;font style=&quot;font-size: 15px;&quot;&gt;监听fd&lt;/font&gt;" style="text;strokeColor=none;fillColor=none;html=1;fontSize=24;fontStyle=1;verticalAlign=middle;align=center;shadow=0;sketch=0;fillStyle=auto;" vertex="1" parent="1">
          <mxGeometry x="1340" y="180" width="80" height="40" as="geometry" />
        </mxCell>
        <mxCell id="TbwkejUD0fsEuNJ-uTAk-87" value="&lt;font style=&quot;font-size: 15px;&quot;&gt;内核空间&lt;/font&gt;" style="text;strokeColor=none;fillColor=none;html=1;fontSize=24;fontStyle=1;verticalAlign=middle;align=center;shadow=0;sketch=0;fillStyle=auto;" vertex="1" parent="1">
          <mxGeometry x="2040" y="140" width="80" height="40" as="geometry" />
        </mxCell>
        <mxCell id="TbwkejUD0fsEuNJ-uTAk-114" value="" style="rounded=0;whiteSpace=wrap;html=1;strokeWidth=2;fillWeight=4;hachureGap=8;hachureAngle=45;fillColor=#ffe6cc;strokeColor=#d79b00;" vertex="1" parent="1">
          <mxGeometry x="1180" y="540" width="940" height="360" as="geometry" />
        </mxCell>
        <mxCell id="TbwkejUD0fsEuNJ-uTAk-115" value="" style="rounded=0;whiteSpace=wrap;html=1;strokeWidth=2;fillWeight=4;hachureGap=8;hachureAngle=45;fillColor=#cce5ff;strokeColor=#36393d;" vertex="1" parent="1">
          <mxGeometry x="1200" y="580" width="480" height="300" as="geometry" />
        </mxCell>
        <mxCell id="TbwkejUD0fsEuNJ-uTAk-116" value="" style="rounded=0;whiteSpace=wrap;html=1;strokeWidth=2;fillWeight=4;hachureGap=8;hachureAngle=45;fillColor=#fff2cc;strokeColor=#d6b656;" vertex="1" parent="1">
          <mxGeometry x="1580" y="620" width="80" height="240" as="geometry" />
        </mxCell>
        <mxCell id="TbwkejUD0fsEuNJ-uTAk-117" value="" style="rounded=0;whiteSpace=wrap;html=1;strokeWidth=2;fillWeight=4;hachureGap=8;hachureAngle=45;fillColor=#f5f5f5;strokeColor=#666666;fontColor=#333333;" vertex="1" parent="1">
          <mxGeometry x="1220" y="620" width="320" height="240" as="geometry" />
        </mxCell>
        <mxCell id="TbwkejUD0fsEuNJ-uTAk-129" value="" style="ellipse;whiteSpace=wrap;html=1;strokeWidth=2;fillWeight=2;hachureGap=8;fillColor=#d5e8d4;fillStyle=auto;shadow=0;strokeColor=#82b366;" vertex="1" parent="1">
          <mxGeometry x="1600" y="640" width="40" height="40" as="geometry" />
        </mxCell>
        <mxCell id="TbwkejUD0fsEuNJ-uTAk-130" value="" style="ellipse;whiteSpace=wrap;html=1;strokeWidth=2;fillWeight=2;hachureGap=8;fillColor=#d5e8d4;fillStyle=auto;shadow=0;strokeColor=#82b366;" vertex="1" parent="1">
          <mxGeometry x="1600" y="720" width="40" height="40" as="geometry" />
        </mxCell>
        <mxCell id="TbwkejUD0fsEuNJ-uTAk-131" value="" style="endArrow=classic;html=1;rounded=0;strokeWidth=2;exitX=0.5;exitY=1;exitDx=0;exitDy=0;entryX=0.5;entryY=0;entryDx=0;entryDy=0;fillColor=#d5e8d4;strokeColor=#82b366;" edge="1" parent="1" source="TbwkejUD0fsEuNJ-uTAk-129" target="TbwkejUD0fsEuNJ-uTAk-130">
          <mxGeometry width="50" height="50" relative="1" as="geometry">
            <mxPoint x="1450" y="600" as="sourcePoint" />
            <mxPoint x="1500" y="550" as="targetPoint" />
          </mxGeometry>
        </mxCell>
        <mxCell id="TbwkejUD0fsEuNJ-uTAk-132" value="&lt;font style=&quot;font-size: 15px;&quot;&gt;epoll&lt;/font&gt;" style="text;strokeColor=none;fillColor=none;html=1;fontSize=24;fontStyle=1;verticalAlign=middle;align=center;shadow=0;sketch=0;fillStyle=auto;" vertex="1" parent="1">
          <mxGeometry x="1201" y="580" width="80" height="40" as="geometry" />
        </mxCell>
        <mxCell id="TbwkejUD0fsEuNJ-uTAk-133" value="协议栈" style="rounded=1;whiteSpace=wrap;html=1;strokeWidth=2;fillWeight=4;hachureGap=8;hachureAngle=45;fillColor=#b0e3e6;strokeColor=#0e8088;fontSize=15;fontStyle=1" vertex="1" parent="1">
          <mxGeometry x="1720" y="640" width="240" height="80" as="geometry" />
        </mxCell>
        <mxCell id="TbwkejUD0fsEuNJ-uTAk-134" value="&lt;font style=&quot;font-size: 15px;&quot;&gt;就绪队列&lt;/font&gt;" style="text;strokeColor=none;fillColor=none;html=1;fontSize=24;fontStyle=1;verticalAlign=middle;align=center;shadow=0;sketch=0;fillStyle=auto;" vertex="1" parent="1">
          <mxGeometry x="1580" y="580" width="80" height="40" as="geometry" />
        </mxCell>
        <mxCell id="TbwkejUD0fsEuNJ-uTAk-135" value="&lt;font style=&quot;font-size: 15px;&quot;&gt;监听fd&lt;/font&gt;" style="text;strokeColor=none;fillColor=none;html=1;fontSize=24;fontStyle=1;verticalAlign=middle;align=center;shadow=0;sketch=0;fillStyle=auto;" vertex="1" parent="1">
          <mxGeometry x="1340" y="580" width="80" height="40" as="geometry" />
        </mxCell>
        <mxCell id="TbwkejUD0fsEuNJ-uTAk-136" value="&lt;font style=&quot;font-size: 15px;&quot;&gt;内核空间&lt;/font&gt;" style="text;strokeColor=none;fillColor=none;html=1;fontSize=24;fontStyle=1;verticalAlign=middle;align=center;shadow=0;sketch=0;fillStyle=auto;" vertex="1" parent="1">
          <mxGeometry x="2040" y="540" width="80" height="40" as="geometry" />
        </mxCell>
        <mxCell id="TbwkejUD0fsEuNJ-uTAk-137" value="" style="rounded=0;whiteSpace=wrap;html=1;strokeWidth=2;fillWeight=4;hachureGap=8;hachureAngle=45;fillColor=#ffe6cc;strokeColor=#d79b00;" vertex="1" parent="1">
          <mxGeometry x="1180" y="940" width="940" height="360" as="geometry" />
        </mxCell>
        <mxCell id="TbwkejUD0fsEuNJ-uTAk-138" value="" style="rounded=0;whiteSpace=wrap;html=1;strokeWidth=2;fillWeight=4;hachureGap=8;hachureAngle=45;fillColor=#cce5ff;strokeColor=#36393d;" vertex="1" parent="1">
          <mxGeometry x="1200" y="980" width="480" height="300" as="geometry" />
        </mxCell>
        <mxCell id="TbwkejUD0fsEuNJ-uTAk-139" value="" style="rounded=0;whiteSpace=wrap;html=1;strokeWidth=2;fillWeight=4;hachureGap=8;hachureAngle=45;fillColor=#fff2cc;strokeColor=#d6b656;" vertex="1" parent="1">
          <mxGeometry x="1580" y="1020" width="80" height="240" as="geometry" />
        </mxCell>
        <mxCell id="TbwkejUD0fsEuNJ-uTAk-140" value="" style="rounded=0;whiteSpace=wrap;html=1;strokeWidth=2;fillWeight=4;hachureGap=8;hachureAngle=45;fillColor=#f5f5f5;strokeColor=#666666;fontColor=#333333;" vertex="1" parent="1">
          <mxGeometry x="1220" y="1020" width="320" height="240" as="geometry" />
        </mxCell>
        <mxCell id="TbwkejUD0fsEuNJ-uTAk-155" value="&lt;font style=&quot;font-size: 15px;&quot;&gt;epoll&lt;/font&gt;" style="text;strokeColor=none;fillColor=none;html=1;fontSize=24;fontStyle=1;verticalAlign=middle;align=center;shadow=0;sketch=0;fillStyle=auto;" vertex="1" parent="1">
          <mxGeometry x="1201" y="980" width="80" height="40" as="geometry" />
        </mxCell>
        <mxCell id="TbwkejUD0fsEuNJ-uTAk-157" value="&lt;font style=&quot;font-size: 15px;&quot;&gt;就绪队列&lt;/font&gt;" style="text;strokeColor=none;fillColor=none;html=1;fontSize=24;fontStyle=1;verticalAlign=middle;align=center;shadow=0;sketch=0;fillStyle=auto;" vertex="1" parent="1">
          <mxGeometry x="1580" y="980" width="80" height="40" as="geometry" />
        </mxCell>
        <mxCell id="TbwkejUD0fsEuNJ-uTAk-158" value="&lt;font style=&quot;font-size: 15px;&quot;&gt;监听fd&lt;/font&gt;" style="text;strokeColor=none;fillColor=none;html=1;fontSize=24;fontStyle=1;verticalAlign=middle;align=center;shadow=0;sketch=0;fillStyle=auto;" vertex="1" parent="1">
          <mxGeometry x="1340" y="980" width="80" height="40" as="geometry" />
        </mxCell>
        <mxCell id="TbwkejUD0fsEuNJ-uTAk-159" value="&lt;font style=&quot;font-size: 15px;&quot;&gt;内核空间&lt;/font&gt;" style="text;strokeColor=none;fillColor=none;html=1;fontSize=24;fontStyle=1;verticalAlign=middle;align=center;shadow=0;sketch=0;fillStyle=auto;" vertex="1" parent="1">
          <mxGeometry x="2040" y="940" width="80" height="40" as="geometry" />
        </mxCell>
        <mxCell id="TbwkejUD0fsEuNJ-uTAk-65" value="" style="ellipse;whiteSpace=wrap;html=1;strokeWidth=2;fillWeight=2;hachureGap=8;fillColor=#d5e8d4;fillStyle=auto;shadow=0;strokeColor=#82b366;" vertex="1" parent="1">
          <mxGeometry x="1600" y="1040" width="40" height="40" as="geometry" />
        </mxCell>
        <mxCell id="TbwkejUD0fsEuNJ-uTAk-70" value="" style="edgeStyle=orthogonalEdgeStyle;rounded=0;orthogonalLoop=1;jettySize=auto;html=1;strokeWidth=2;fontSize=15;" edge="1" parent="1" source="TbwkejUD0fsEuNJ-uTAk-66" target="TbwkejUD0fsEuNJ-uTAk-67">
          <mxGeometry relative="1" as="geometry" />
        </mxCell>
        <mxCell id="TbwkejUD0fsEuNJ-uTAk-66" value="" style="ellipse;whiteSpace=wrap;html=1;strokeWidth=2;fillWeight=2;hachureGap=8;fillColor=#d5e8d4;fillStyle=auto;shadow=0;strokeColor=#82b366;" vertex="1" parent="1">
          <mxGeometry x="1600" y="1120" width="40" height="40" as="geometry" />
        </mxCell>
        <mxCell id="TbwkejUD0fsEuNJ-uTAk-67" value="" style="ellipse;whiteSpace=wrap;html=1;strokeWidth=2;fillWeight=2;hachureGap=8;fillColor=#f8cecc;fillStyle=auto;shadow=0;strokeColor=#b85450;" vertex="1" parent="1">
          <mxGeometry x="1600" y="1200" width="40" height="40" as="geometry" />
        </mxCell>
        <mxCell id="TbwkejUD0fsEuNJ-uTAk-68" value="" style="endArrow=classic;html=1;rounded=0;strokeWidth=2;exitX=0.5;exitY=1;exitDx=0;exitDy=0;entryX=0.5;entryY=0;entryDx=0;entryDy=0;fillColor=#d5e8d4;strokeColor=#82b366;" edge="1" parent="1" source="TbwkejUD0fsEuNJ-uTAk-65" target="TbwkejUD0fsEuNJ-uTAk-66">
          <mxGeometry width="50" height="50" relative="1" as="geometry">
            <mxPoint x="1450" y="1000" as="sourcePoint" />
            <mxPoint x="1500" y="950" as="targetPoint" />
          </mxGeometry>
        </mxCell>
        <mxCell id="TbwkejUD0fsEuNJ-uTAk-69" value="" style="endArrow=classic;html=1;rounded=0;strokeWidth=2;exitX=0.5;exitY=1;exitDx=0;exitDy=0;entryX=0.5;entryY=0;entryDx=0;entryDy=0;fillColor=#d5e8d4;strokeColor=#82b366;" edge="1" parent="1" source="TbwkejUD0fsEuNJ-uTAk-66" target="TbwkejUD0fsEuNJ-uTAk-67">
          <mxGeometry width="50" height="50" relative="1" as="geometry">
            <mxPoint x="1630" y="1090" as="sourcePoint" />
            <mxPoint x="1630" y="1130" as="targetPoint" />
          </mxGeometry>
        </mxCell>
        <mxCell id="TbwkejUD0fsEuNJ-uTAk-72" value="协议栈" style="rounded=1;whiteSpace=wrap;html=1;strokeWidth=2;fillWeight=4;hachureGap=8;hachureAngle=45;fillColor=#b0e3e6;strokeColor=#0e8088;fontSize=15;fontStyle=1" vertex="1" parent="1">
          <mxGeometry x="1720" y="1040" width="240" height="80" as="geometry" />
        </mxCell>
        <mxCell id="TbwkejUD0fsEuNJ-uTAk-74" value="" style="endArrow=classic;html=1;rounded=0;strokeWidth=2;fontSize=15;exitX=0.5;exitY=1;exitDx=0;exitDy=0;entryX=1;entryY=0.5;entryDx=0;entryDy=0;fillColor=#b0e3e6;strokeColor=#0e8088;" edge="1" parent="1" source="TbwkejUD0fsEuNJ-uTAk-72" target="TbwkejUD0fsEuNJ-uTAk-67">
          <mxGeometry width="50" height="50" relative="1" as="geometry">
            <mxPoint x="1800" y="1170" as="sourcePoint" />
            <mxPoint x="1890" y="1170" as="targetPoint" />
            <Array as="points">
              <mxPoint x="1840" y="1220" />
            </Array>
          </mxGeometry>
        </mxCell>
        <mxCell id="TbwkejUD0fsEuNJ-uTAk-75" value="" style="endArrow=classic;html=1;rounded=0;strokeWidth=2;fontSize=15;entryX=1;entryY=0.5;entryDx=0;entryDy=0;exitX=0;exitY=0.5;exitDx=0;exitDy=0;fillColor=#b0e3e6;strokeColor=#0e8088;" edge="1" parent="1" source="TbwkejUD0fsEuNJ-uTAk-76" target="TbwkejUD0fsEuNJ-uTAk-72">
          <mxGeometry width="50" height="50" relative="1" as="geometry">
            <mxPoint x="2080" y="1080" as="sourcePoint" />
            <mxPoint x="2130" y="1115" as="targetPoint" />
          </mxGeometry>
        </mxCell>
        <mxCell id="TbwkejUD0fsEuNJ-uTAk-76" value="网卡" style="rounded=1;whiteSpace=wrap;html=1;strokeWidth=2;fillWeight=4;hachureGap=8;hachureAngle=45;fillColor=#b0e3e6;strokeColor=#0e8088;fontSize=15;fontStyle=1" vertex="1" parent="1">
          <mxGeometry x="2000" y="1060" width="80" height="40" as="geometry" />
        </mxCell>
        <mxCell id="TbwkejUD0fsEuNJ-uTAk-77" value="&lt;span style=&quot;font-size: 15px;&quot;&gt;协议栈处理收包，&lt;br&gt;根据维护的红黑树，&lt;br&gt;选择在就绪队列中添加事件&lt;/span&gt;" style="text;strokeColor=none;fillColor=none;html=1;fontSize=24;fontStyle=1;verticalAlign=middle;align=left;shadow=0;sketch=0;fillStyle=auto;" vertex="1" parent="1">
          <mxGeometry x="1880" y="1160" width="220" height="80" as="geometry" />
        </mxCell>
        <mxCell id="TbwkejUD0fsEuNJ-uTAk-52" value="" style="ellipse;whiteSpace=wrap;html=1;strokeWidth=2;fillWeight=2;hachureGap=8;fillColor=#dae8fc;fillStyle=auto;shadow=0;strokeColor=#6c8ebf;" vertex="1" parent="1">
          <mxGeometry x="1360" y="1040" width="40" height="40" as="geometry" />
        </mxCell>
        <mxCell id="TbwkejUD0fsEuNJ-uTAk-53" value="" style="ellipse;whiteSpace=wrap;html=1;strokeWidth=2;fillWeight=2;hachureGap=8;fillColor=#dae8fc;fillStyle=auto;shadow=0;strokeColor=#6c8ebf;" vertex="1" parent="1">
          <mxGeometry x="1280" y="1120" width="40" height="40" as="geometry" />
        </mxCell>
        <mxCell id="TbwkejUD0fsEuNJ-uTAk-54" value="" style="ellipse;whiteSpace=wrap;html=1;strokeWidth=2;fillWeight=2;hachureGap=8;fillColor=#dae8fc;fillStyle=auto;shadow=0;strokeColor=#6c8ebf;" vertex="1" parent="1">
          <mxGeometry x="1440" y="1120" width="40" height="40" as="geometry" />
        </mxCell>
        <mxCell id="TbwkejUD0fsEuNJ-uTAk-55" value="" style="ellipse;whiteSpace=wrap;html=1;strokeWidth=2;fillWeight=2;hachureGap=8;fillColor=#dae8fc;fillStyle=auto;shadow=0;strokeColor=#6c8ebf;" vertex="1" parent="1">
          <mxGeometry x="1240" y="1200" width="40" height="40" as="geometry" />
        </mxCell>
        <mxCell id="TbwkejUD0fsEuNJ-uTAk-56" value="" style="ellipse;whiteSpace=wrap;html=1;strokeWidth=2;fillWeight=2;hachureGap=8;fillColor=#dae8fc;fillStyle=auto;shadow=0;strokeColor=#6c8ebf;" vertex="1" parent="1">
          <mxGeometry x="1320" y="1200" width="40" height="40" as="geometry" />
        </mxCell>
        <mxCell id="TbwkejUD0fsEuNJ-uTAk-57" value="" style="ellipse;whiteSpace=wrap;html=1;strokeWidth=2;fillWeight=2;hachureGap=8;fillColor=#dae8fc;fillStyle=auto;shadow=0;strokeColor=#6c8ebf;" vertex="1" parent="1">
          <mxGeometry x="1400" y="1200" width="40" height="40" as="geometry" />
        </mxCell>
        <mxCell id="TbwkejUD0fsEuNJ-uTAk-58" value="" style="ellipse;whiteSpace=wrap;html=1;strokeWidth=2;fillWeight=2;hachureGap=8;fillColor=#f8cecc;fillStyle=auto;shadow=0;strokeColor=#b85450;" vertex="1" parent="1">
          <mxGeometry x="1480" y="1200" width="40" height="40" as="geometry" />
        </mxCell>
        <mxCell id="TbwkejUD0fsEuNJ-uTAk-59" value="" style="endArrow=classic;html=1;rounded=0;strokeWidth=2;exitX=0;exitY=1;exitDx=0;exitDy=0;entryX=0.5;entryY=0;entryDx=0;entryDy=0;fillColor=#dae8fc;strokeColor=#6c8ebf;" edge="1" parent="1" source="TbwkejUD0fsEuNJ-uTAk-52" target="TbwkejUD0fsEuNJ-uTAk-53">
          <mxGeometry width="50" height="50" relative="1" as="geometry">
            <mxPoint x="1690" y="1150" as="sourcePoint" />
            <mxPoint x="1740" y="1100" as="targetPoint" />
          </mxGeometry>
        </mxCell>
        <mxCell id="TbwkejUD0fsEuNJ-uTAk-60" value="" style="endArrow=classic;html=1;rounded=0;strokeWidth=2;exitX=1;exitY=1;exitDx=0;exitDy=0;entryX=0.5;entryY=0;entryDx=0;entryDy=0;fillColor=#dae8fc;strokeColor=#6c8ebf;" edge="1" parent="1" source="TbwkejUD0fsEuNJ-uTAk-52" target="TbwkejUD0fsEuNJ-uTAk-54">
          <mxGeometry width="50" height="50" relative="1" as="geometry">
            <mxPoint x="1375.857864376269" y="1104.142135623731" as="sourcePoint" />
            <mxPoint x="1324.142135623731" y="1135.857864376269" as="targetPoint" />
          </mxGeometry>
        </mxCell>
        <mxCell id="TbwkejUD0fsEuNJ-uTAk-61" value="" style="endArrow=classic;html=1;rounded=0;strokeWidth=2;exitX=0;exitY=1;exitDx=0;exitDy=0;entryX=0.5;entryY=0;entryDx=0;entryDy=0;fillColor=#dae8fc;strokeColor=#6c8ebf;" edge="1" parent="1" source="TbwkejUD0fsEuNJ-uTAk-53" target="TbwkejUD0fsEuNJ-uTAk-55">
          <mxGeometry width="50" height="50" relative="1" as="geometry">
            <mxPoint x="1404.142135623731" y="1104.142135623731" as="sourcePoint" />
            <mxPoint x="1455.857864376269" y="1135.857864376269" as="targetPoint" />
          </mxGeometry>
        </mxCell>
        <mxCell id="TbwkejUD0fsEuNJ-uTAk-62" value="" style="endArrow=classic;html=1;rounded=0;strokeWidth=2;exitX=1;exitY=1;exitDx=0;exitDy=0;entryX=0.5;entryY=0;entryDx=0;entryDy=0;fillColor=#dae8fc;strokeColor=#6c8ebf;" edge="1" parent="1" source="TbwkejUD0fsEuNJ-uTAk-53" target="TbwkejUD0fsEuNJ-uTAk-56">
          <mxGeometry width="50" height="50" relative="1" as="geometry">
            <mxPoint x="1295.857864376269" y="1164.142135623731" as="sourcePoint" />
            <mxPoint x="1270" y="1190" as="targetPoint" />
          </mxGeometry>
        </mxCell>
        <mxCell id="TbwkejUD0fsEuNJ-uTAk-63" value="" style="endArrow=classic;html=1;rounded=0;strokeWidth=2;exitX=0;exitY=1;exitDx=0;exitDy=0;entryX=0.5;entryY=0;entryDx=0;entryDy=0;fillColor=#dae8fc;strokeColor=#6c8ebf;" edge="1" parent="1" source="TbwkejUD0fsEuNJ-uTAk-54" target="TbwkejUD0fsEuNJ-uTAk-57">
          <mxGeometry width="50" height="50" relative="1" as="geometry">
            <mxPoint x="1324.142135623731" y="1164.142135623731" as="sourcePoint" />
            <mxPoint x="1350" y="1190" as="targetPoint" />
          </mxGeometry>
        </mxCell>
        <mxCell id="TbwkejUD0fsEuNJ-uTAk-64" value="" style="endArrow=classic;html=1;rounded=0;strokeWidth=2;exitX=1;exitY=1;exitDx=0;exitDy=0;entryX=0.5;entryY=0;entryDx=0;entryDy=0;fillColor=#dae8fc;strokeColor=#6c8ebf;" edge="1" parent="1" source="TbwkejUD0fsEuNJ-uTAk-54" target="TbwkejUD0fsEuNJ-uTAk-58">
          <mxGeometry width="50" height="50" relative="1" as="geometry">
            <mxPoint x="1455.857864376269" y="1164.142135623731" as="sourcePoint" />
            <mxPoint x="1430" y="1190" as="targetPoint" />
          </mxGeometry>
        </mxCell>
        <mxCell id="TbwkejUD0fsEuNJ-uTAk-23" value="" style="ellipse;whiteSpace=wrap;html=1;strokeWidth=2;fillWeight=2;hachureGap=8;fillColor=#dae8fc;fillStyle=auto;shadow=0;strokeColor=#6c8ebf;" vertex="1" parent="1">
          <mxGeometry x="1361" y="640" width="40" height="40" as="geometry" />
        </mxCell>
        <mxCell id="TbwkejUD0fsEuNJ-uTAk-24" value="" style="ellipse;whiteSpace=wrap;html=1;strokeWidth=2;fillWeight=2;hachureGap=8;fillColor=#dae8fc;fillStyle=auto;shadow=0;strokeColor=#6c8ebf;" vertex="1" parent="1">
          <mxGeometry x="1281" y="720" width="40" height="40" as="geometry" />
        </mxCell>
        <mxCell id="TbwkejUD0fsEuNJ-uTAk-25" value="" style="ellipse;whiteSpace=wrap;html=1;strokeWidth=2;fillWeight=2;hachureGap=8;fillColor=#dae8fc;fillStyle=auto;shadow=0;strokeColor=#6c8ebf;" vertex="1" parent="1">
          <mxGeometry x="1441" y="720" width="40" height="40" as="geometry" />
        </mxCell>
        <mxCell id="TbwkejUD0fsEuNJ-uTAk-26" value="" style="ellipse;whiteSpace=wrap;html=1;strokeWidth=2;fillWeight=2;hachureGap=8;fillColor=#dae8fc;fillStyle=auto;shadow=0;strokeColor=#6c8ebf;" vertex="1" parent="1">
          <mxGeometry x="1241" y="800" width="40" height="40" as="geometry" />
        </mxCell>
        <mxCell id="TbwkejUD0fsEuNJ-uTAk-27" value="" style="ellipse;whiteSpace=wrap;html=1;strokeWidth=2;fillWeight=2;hachureGap=8;fillColor=#dae8fc;fillStyle=auto;shadow=0;strokeColor=#6c8ebf;" vertex="1" parent="1">
          <mxGeometry x="1321" y="800" width="40" height="40" as="geometry" />
        </mxCell>
        <mxCell id="TbwkejUD0fsEuNJ-uTAk-28" value="" style="ellipse;whiteSpace=wrap;html=1;strokeWidth=2;fillWeight=2;hachureGap=8;fillColor=#dae8fc;fillStyle=auto;shadow=0;strokeColor=#6c8ebf;" vertex="1" parent="1">
          <mxGeometry x="1401" y="800" width="40" height="40" as="geometry" />
        </mxCell>
        <mxCell id="TbwkejUD0fsEuNJ-uTAk-29" value="" style="ellipse;whiteSpace=wrap;html=1;strokeWidth=2;fillWeight=2;hachureGap=8;fillColor=#f8cecc;fillStyle=auto;shadow=0;strokeColor=#b85450;" vertex="1" parent="1">
          <mxGeometry x="1481" y="800" width="40" height="40" as="geometry" />
        </mxCell>
        <mxCell id="TbwkejUD0fsEuNJ-uTAk-30" value="" style="endArrow=classic;html=1;rounded=0;strokeWidth=2;exitX=0;exitY=1;exitDx=0;exitDy=0;entryX=0.5;entryY=0;entryDx=0;entryDy=0;fillColor=#dae8fc;strokeColor=#6c8ebf;" edge="1" parent="1" source="TbwkejUD0fsEuNJ-uTAk-23" target="TbwkejUD0fsEuNJ-uTAk-24">
          <mxGeometry width="50" height="50" relative="1" as="geometry">
            <mxPoint x="1691" y="750" as="sourcePoint" />
            <mxPoint x="1741" y="700" as="targetPoint" />
          </mxGeometry>
        </mxCell>
        <mxCell id="TbwkejUD0fsEuNJ-uTAk-31" value="" style="endArrow=classic;html=1;rounded=0;strokeWidth=2;exitX=1;exitY=1;exitDx=0;exitDy=0;entryX=0.5;entryY=0;entryDx=0;entryDy=0;fillColor=#dae8fc;strokeColor=#6c8ebf;" edge="1" parent="1" source="TbwkejUD0fsEuNJ-uTAk-23" target="TbwkejUD0fsEuNJ-uTAk-25">
          <mxGeometry width="50" height="50" relative="1" as="geometry">
            <mxPoint x="1376.857864376269" y="704.1421356237311" as="sourcePoint" />
            <mxPoint x="1325.142135623731" y="735.8578643762689" as="targetPoint" />
          </mxGeometry>
        </mxCell>
        <mxCell id="TbwkejUD0fsEuNJ-uTAk-32" value="" style="endArrow=classic;html=1;rounded=0;strokeWidth=2;exitX=0;exitY=1;exitDx=0;exitDy=0;entryX=0.5;entryY=0;entryDx=0;entryDy=0;fillColor=#dae8fc;strokeColor=#6c8ebf;" edge="1" parent="1" source="TbwkejUD0fsEuNJ-uTAk-24" target="TbwkejUD0fsEuNJ-uTAk-26">
          <mxGeometry width="50" height="50" relative="1" as="geometry">
            <mxPoint x="1405.142135623731" y="704.1421356237311" as="sourcePoint" />
            <mxPoint x="1456.857864376269" y="735.8578643762689" as="targetPoint" />
          </mxGeometry>
        </mxCell>
        <mxCell id="TbwkejUD0fsEuNJ-uTAk-33" value="" style="endArrow=classic;html=1;rounded=0;strokeWidth=2;exitX=1;exitY=1;exitDx=0;exitDy=0;entryX=0.5;entryY=0;entryDx=0;entryDy=0;fillColor=#dae8fc;strokeColor=#6c8ebf;" edge="1" parent="1" source="TbwkejUD0fsEuNJ-uTAk-24" target="TbwkejUD0fsEuNJ-uTAk-27">
          <mxGeometry width="50" height="50" relative="1" as="geometry">
            <mxPoint x="1296.857864376269" y="764.1421356237311" as="sourcePoint" />
            <mxPoint x="1271" y="790" as="targetPoint" />
          </mxGeometry>
        </mxCell>
        <mxCell id="TbwkejUD0fsEuNJ-uTAk-34" value="" style="endArrow=classic;html=1;rounded=0;strokeWidth=2;exitX=0;exitY=1;exitDx=0;exitDy=0;entryX=0.5;entryY=0;entryDx=0;entryDy=0;fillColor=#dae8fc;strokeColor=#6c8ebf;" edge="1" parent="1" source="TbwkejUD0fsEuNJ-uTAk-25" target="TbwkejUD0fsEuNJ-uTAk-28">
          <mxGeometry width="50" height="50" relative="1" as="geometry">
            <mxPoint x="1325.142135623731" y="764.1421356237311" as="sourcePoint" />
            <mxPoint x="1351" y="790" as="targetPoint" />
          </mxGeometry>
        </mxCell>
        <mxCell id="TbwkejUD0fsEuNJ-uTAk-35" value="" style="endArrow=classic;html=1;rounded=0;strokeWidth=2;exitX=1;exitY=1;exitDx=0;exitDy=0;entryX=0.5;entryY=0;entryDx=0;entryDy=0;fillColor=#dae8fc;strokeColor=#6c8ebf;" edge="1" parent="1" source="TbwkejUD0fsEuNJ-uTAk-25" target="TbwkejUD0fsEuNJ-uTAk-29">
          <mxGeometry width="50" height="50" relative="1" as="geometry">
            <mxPoint x="1456.857864376269" y="764.1421356237311" as="sourcePoint" />
            <mxPoint x="1431" y="790" as="targetPoint" />
          </mxGeometry>
        </mxCell>
        <mxCell id="TbwkejUD0fsEuNJ-uTAk-162" value="" style="rounded=0;whiteSpace=wrap;html=1;strokeWidth=2;fillWeight=4;hachureGap=8;hachureAngle=45;fillColor=#d5e8d4;strokeColor=#82b366;" vertex="1" parent="1">
          <mxGeometry x="880" y="540" width="260" height="120" as="geometry" />
        </mxCell>
        <mxCell id="TbwkejUD0fsEuNJ-uTAk-163" value="&lt;font style=&quot;font-size: 15px;&quot;&gt;用户空间&lt;/font&gt;" style="text;strokeColor=none;fillColor=none;html=1;fontSize=24;fontStyle=1;verticalAlign=middle;align=center;shadow=0;sketch=0;fillStyle=auto;" vertex="1" parent="1">
          <mxGeometry x="1040" y="540" width="100" height="40" as="geometry" />
        </mxCell>
        <mxCell id="TbwkejUD0fsEuNJ-uTAk-47" value="&lt;font style=&quot;font-size: 15px;&quot;&gt;epoll_ctl&lt;br&gt;&lt;div style=&quot;&quot;&gt;&lt;span style=&quot;background-color: initial;&quot;&gt;添加fd到epoll，注册监听&lt;/span&gt;&lt;/div&gt;&lt;/font&gt;" style="text;strokeColor=none;fillColor=none;html=1;fontSize=24;fontStyle=1;verticalAlign=middle;align=center;shadow=0;sketch=0;fillStyle=auto;" vertex="1" parent="1">
          <mxGeometry x="880" y="580" width="260" height="80" as="geometry" />
        </mxCell>
        <mxCell id="TbwkejUD0fsEuNJ-uTAk-165" value="" style="rounded=0;whiteSpace=wrap;html=1;strokeWidth=2;fillWeight=4;hachureGap=8;hachureAngle=45;fillColor=#d5e8d4;strokeColor=#82b366;" vertex="1" parent="1">
          <mxGeometry x="880" y="940" width="260" height="120" as="geometry" />
        </mxCell>
        <mxCell id="TbwkejUD0fsEuNJ-uTAk-166" value="&lt;font style=&quot;font-size: 15px;&quot;&gt;用户空间&lt;/font&gt;" style="text;strokeColor=none;fillColor=none;html=1;fontSize=24;fontStyle=1;verticalAlign=middle;align=center;shadow=0;sketch=0;fillStyle=auto;" vertex="1" parent="1">
          <mxGeometry x="1040" y="940" width="100" height="40" as="geometry" />
        </mxCell>
        <mxCell id="TbwkejUD0fsEuNJ-uTAk-50" value="&lt;span style=&quot;font-size: 15px;&quot;&gt;epoll_wait &lt;br&gt;直接获取就绪队列中的事件&lt;/span&gt;" style="text;strokeColor=none;fillColor=none;html=1;fontSize=24;fontStyle=1;verticalAlign=middle;align=center;shadow=0;sketch=0;fillStyle=auto;" vertex="1" parent="1">
          <mxGeometry x="880" y="980" width="260" height="80" as="geometry" />
        </mxCell>
      </root>
    </mxGraphModel>
  </diagram>
</mxfile>
